<?xml version="1.0" encoding="UTF-8" standalone="no"?>
<svg
   xmlns:dc="http://purl.org/dc/elements/1.1/"
   xmlns:cc="http://creativecommons.org/ns#"
   xmlns:rdf="http://www.w3.org/1999/02/22-rdf-syntax-ns#"
   xmlns:svg="http://www.w3.org/2000/svg"
   xmlns="http://www.w3.org/2000/svg"
   xmlns:sodipodi="http://sodipodi.sourceforge.net/DTD/sodipodi-0.dtd"
   xmlns:inkscape="http://www.inkscape.org/namespaces/inkscape"
   width="210mm"
   height="297mm"
   viewBox="0 0 210 297"
   version="1.1"
   id="svg8"
   inkscape:version="1.0.1 (3bc2e813f5, 2020-09-07)"
   sodipodi:docname="BL-GUI-v3.0.svg">
  <defs
     id="defs2" />
  <sodipodi:namedview
     id="base"
     pagecolor="#ffffff"
     bordercolor="#666666"
     borderopacity="1.0"
     inkscape:pageopacity="0.0"
     inkscape:pageshadow="2"
     inkscape:zoom="1.4"
     inkscape:cx="262.16306"
     inkscape:cy="-162.57577"
     inkscape:document-units="px"
     inkscape:current-layer="layer7"
     inkscape:document-rotation="0"
     showgrid="true"
     inkscape:window-width="1440"
     inkscape:window-height="849"
     inkscape:window-x="0"
     inkscape:window-y="25"
     inkscape:window-maximized="1"
     showguides="true"
     inkscape:guide-bbox="true"
     units="mm"
     inkscape:snap-path-clip="false"
     inkscape:snap-path-mask="false">
    <sodipodi:guide
       position="0.003581592,203.79233"
       orientation="0.99999999,-0.00015370981"
       id="guide1002" />
    <sodipodi:guide
       position="14.371189,297.00295"
       orientation="0,-1"
       id="guide1004" />
    <inkscape:grid
       type="xygrid"
       id="grid1063"
       spacingx="5.8208333"
       spacingy="5.8208333" />
    <inkscape:grid
       type="xygrid"
       id="grid1065"
       empspacing="1"
       spacingx="0.52916667"
       spacingy="0.52916667" />
    <sodipodi:guide
       position="3.7041667,294.35417"
       orientation="1,0"
       id="guide1069" />
    <sodipodi:guide
       position="4.7624999,299.64584"
       orientation="0,-1"
       id="guide1071" />
    <sodipodi:guide
       position="-2.1166667,301.23333"
       orientation="0,-1"
       id="guide1078" />
    <sodipodi:guide
       position="15.875,291.17917"
       orientation="1,0"
       id="guide1080" />
  </sodipodi:namedview>
  <metadata
     id="metadata5">
    <rdf:RDF>
      <cc:Work
         rdf:about="">
        <dc:format>image/svg+xml</dc:format>
        <dc:type
           rdf:resource="http://purl.org/dc/dcmitype/StillImage" />
        <dc:title />
      </cc:Work>
    </rdf:RDF>
  </metadata>
  <g
     inkscape:groupmode="layer"
     id="layer5"
     inkscape:label="Logo-bg"
     style="display:none"
     sodipodi:insensitive="true">
    <g
       id="layer4"
       inkscape:label="Background"
       style="display:inline"
       transform="matrix(0.26458333,0,0,0.26458333,84.036935,120.3141)">
      <rect
         style="opacity:1;fill:#000000;fill-opacity:1;stroke:#b6ff55;stroke-width:0;stroke-linecap:butt;stroke-linejoin:miter;stroke-miterlimit:4;stroke-dasharray:none;stroke-opacity:0.0152285;paint-order:markers fill stroke"
         id="rect4656"
         width="128.431"
         height="128.42123"
         x="-0.10423345"
         y="0.27631336"
         inkscape:export-filename="/Users/applematuer/Documents/Dev/plugin-development/Image-Work/Logo-v2.0/Exports/BL-Logo-Alpha-1024.png"
         inkscape:export-xdpi="765.4809"
         inkscape:export-ydpi="765.4809" />
    </g>
  </g>
  <g
     inkscape:groupmode="layer"
     id="layer6"
     inkscape:label="Background"
     sodipodi:insensitive="true">
    <rect
       style="fill:#000000;stroke:#000000;stroke-width:0;stroke-linecap:round;stroke-linejoin:round;stroke-miterlimit:4;stroke-dasharray:none"
       id="rect1000"
       width="120.6395"
       height="129.11372"
       x="0.017908979"
       y="-129.11667" />
  </g>
  <g
     inkscape:label="Logo"
     inkscape:groupmode="layer"
     id="layer1"
     style="display:inline"
     sodipodi:insensitive="true">
    <g
       id="layer3"
       inkscape:label="Bottle"
       style="display:inline"
       transform="matrix(0.09637446,0,0,0.09637446,5.7132363,-17.690463)">
      <g
         id="g4609"
         transform="matrix(0.20228319,0,0,0.20228319,11.46966,38.320744)">
        <title
           id="title4606">background</title>
        <rect
           style="fill:none"
           id="canvas_background"
           height="402"
           width="582"
           y="-1"
           x="-1" />
      </g>
    </g>
    <g
       id="g1061"
       transform="translate(-3.6140952,3.299154)">
      <path
         id="path2"
         style="display:inline;fill:#5252ff;fill-opacity:1"
         d="m 44.757812,27 c -4.128999,0 -7.476562,3.347564 -7.476562,7.476562 v 4.046876 C 37.28125,42.652437 40.628813,46 44.757812,46 H 45.28125 V 58.736328 L 19.5,106.76367 C 15.33,114.72667 18.741031,121 27.082031,121 h 36.773438 0.08398 36.773441 c 8.341,0 11.75203,-6.27333 7.58203,-14.23633 L 82.513672,58.736328 V 46 h 0.523437 c 4.129,0 7.476563,-3.347563 7.476563,-7.476562 V 34.476562 C 90.513672,30.347564 87.166108,27 83.037109,27 h -19.097656 -0.08398 z m 0,4 h 19.097657 0.08398 19.097656 c 1.916999,0 3.476563,1.559609 3.476563,3.474609 v 4.048829 c 0,1.917 -1.559563,3.476562 -3.476563,3.476562 h -4.523437 v 17.761719 l 26.238282,48.857421 c 1.386,2.645 1.70171,5.07033 0.84571,6.48633 -0.997,1.648 -3.48877,1.89453 -4.88477,1.89453 H 63.939453 63.855469 27.082031 c -1.396,0 -3.887765,-0.24653 -4.884765,-1.89453 -0.856,-1.416 -0.540297,-3.84133 0.845703,-6.48633 L 49.28125,59.761719 V 42 h -4.523438 c -1.917,0 -3.476562,-1.559562 -3.476562,-3.476562 V 34.474609 C 41.28125,32.559609 42.840813,31 44.757812,31 Z"
         transform="matrix(0.09637446,0,0,0.09637446,5.7132363,-17.690463)" />
      <g
         id="layer8"
         inkscape:label="Bubbles"
         style="display:inline"
         transform="matrix(0.09637446,0,0,0.09637446,5.7132363,-17.690463)">
        <g
           id="g948">
          <circle
             cx="69.818085"
             cy="16.915253"
             r="4.6669998"
             id="circle10"
             style="display:inline;fill:#5252ff;fill-opacity:1" />
          <circle
             cx="56.411312"
             cy="10.790627"
             r="4"
             id="circle12"
             style="display:inline;fill:#5252ff;fill-opacity:1" />
        </g>
      </g>
      <g
         id="layer2"
         inkscape:label="Fluid"
         style="display:inline"
         transform="matrix(0.09637446,0,0,0.09637446,5.7132363,-17.690463)">
        <path
           style="fill:#5252ff;fill-opacity:1;stroke:#5252ff;stroke-width:5.31615;stroke-linecap:butt;stroke-linejoin:round;stroke-miterlimit:4;stroke-dasharray:none;stroke-opacity:1"
           d="m 54.122375,63.988049 19.854478,0.0569 24.748767,46.284711 H 29.069298 Z"
           id="path934"
           sodipodi:nodetypes="cccc" />
      </g>
      <g
         id="layer1-3"
         inkscape:label="Waveform"
         style="display:inline"
         transform="matrix(0.09637446,0,0,0.09637446,5.7132363,-17.690463)">
        <polyline
           transform="matrix(0.11505534,0,0,0.09956537,35.076097,64.481027)"
           style="display:inline;mix-blend-mode:normal;fill:none;stroke:#b6ff55;stroke-width:23.4419;stroke-linecap:round;stroke-linejoin:round;stroke-miterlimit:10;stroke-dasharray:none;stroke-opacity:1;paint-order:normal"
           rx="100"
           id="svg_1"
           stroke-miterlimit="10"
           points="29.5,277.5539855957031 101.71400451660156,277.5539855957031 114.16500854492188,240.2010040283203 131.59600830078125,317.39599609375 168.947998046875,200.35899353027344 193.8489990234375,326.1109924316406 234.93701171875,74.60700225830078 279.7590026855469,444.39300537109375 317.1109924316406,190.3990020751953 346.99298095703125,317.39599609375 378.1199951171875,220.27999877929688 399.2859802246094,277.5539855957031 471.5,277.5539855957031 " />
      </g>
    </g>
  </g>
  <g
     inkscape:groupmode="layer"
     id="layer7"
     inkscape:label="Plug name">
    <text
       xml:space="preserve"
       style="font-style:normal;font-weight:normal;font-size:10.5833px;line-height:1.25;font-family:sans-serif;fill:#000000;fill-opacity:1;stroke:none;stroke-width:0.264583;"
       x="15.567543"
       y="-4.3797908"
       id="text1076"><tspan
         sodipodi:role="line"
         id="tspan1074"
         x="15.567543"
         y="-4.3797908"
         style="font-style:normal;font-variant:normal;font-weight:bold;font-stretch:normal;font-size:4.93889px;font-family:'Open Sans';-inkscape-font-specification:'Open Sans, Bold';font-variant-ligatures:normal;font-variant-caps:normal;font-variant-numeric:normal;font-variant-east-asian:normal;fill:#776dff;fill-opacity:1;stroke-width:0.264583">STEREOWIDTH</tspan></text>
  </g>
</svg>
