<?xml version="1.0" encoding="UTF-8" standalone="no"?>
<svg
   xmlns:dc="http://purl.org/dc/elements/1.1/"
   xmlns:cc="http://creativecommons.org/ns#"
   xmlns:rdf="http://www.w3.org/1999/02/22-rdf-syntax-ns#"
   xmlns:svg="http://www.w3.org/2000/svg"
   xmlns="http://www.w3.org/2000/svg"
   xmlns:sodipodi="http://sodipodi.sourceforge.net/DTD/sodipodi-0.dtd"
   xmlns:inkscape="http://www.inkscape.org/namespaces/inkscape"
   enable-background="new 0 0 128 128"
   height="128px"
   id="Layer_1"
   version="1.1"
   viewBox="0 0 128 128"
   width="128px"
   xml:space="preserve"
   sodipodi:docname="BL-Logo-v2.1.svg"
   inkscape:version="0.92.2 5c3e80d, 2017-08-06"
   inkscape:export-filename="/Users/applematuer/Documents/Dev/plugin-development/Image-Work/Logo-v2.0/BL-Logo-v2.1.png"
   inkscape:export-xdpi="765.4809"
   inkscape:export-ydpi="765.4809"><metadata
     id="metadata20"><rdf:RDF><cc:Work
         rdf:about=""><dc:format>image/svg+xml</dc:format><dc:type
           rdf:resource="http://purl.org/dc/dcmitype/StillImage" /><dc:title></dc:title></cc:Work></rdf:RDF></metadata><defs
     id="defs18" /><sodipodi:namedview
     pagecolor="#ffffff"
     bordercolor="#666666"
     borderopacity="1"
     objecttolerance="10"
     gridtolerance="10"
     guidetolerance="10"
     inkscape:pageopacity="0"
     inkscape:pageshadow="2"
     inkscape:window-width="1440"
     inkscape:window-height="799"
     id="namedview16"
     showgrid="false"
     inkscape:zoom="3.6875"
     inkscape:cx="51.413094"
     inkscape:cy="62.683983"
     inkscape:window-x="62"
     inkscape:window-y="13"
     inkscape:window-maximized="0"
     inkscape:current-layer="layer4" /><g
     inkscape:groupmode="layer"
     id="layer4"
     inkscape:label="Background"
     style="display:inline"><rect
       style="opacity:1;fill:#000000;fill-opacity:1;stroke:#b6ff55;stroke-width:0;stroke-linecap:butt;stroke-linejoin:miter;stroke-miterlimit:4;stroke-dasharray:none;stroke-opacity:0.01522845;paint-order:markers fill stroke"
       id="rect4656"
       width="128.431"
       height="128.42123"
       x="-0.10423345"
       y="0.27631336"
       inkscape:export-filename="/Users/applematuer/Documents/Dev/plugin-development/Image-Work/Logo-v2.0/Exports/BL-Logo-Alpha-1024.png"
       inkscape:export-xdpi="765.4809"
       inkscape:export-ydpi="765.4809" /></g><g
     inkscape:groupmode="layer"
     id="layer3"
     inkscape:label="Logo"
     style="display:inline"><g
       id="g4609"
       transform="matrix(0.20228319,0,0,0.20228319,11.46966,38.320744)"><title
         id="title4606">background</title><rect
         style="fill:none"
         id="canvas_background"
         height="402"
         width="582"
         y="-1"
         x="-1" /></g><g
       id="g861"
       transform="translate(-1.7183004)"><path
         d="M 110.782,106.733 83,58.768 V 46 h 0.524 C 87.653,46 91,42.653 91,38.524 V 34.476 C 91,30.347 87.653,27 83.524,27 H 46.476 C 42.347,27 39,30.347 39,34.476 v 4.048 C 39,42.653 42.347,46 46.476,46 H 47 V 58.737 L 21.218,106.763 C 17.048,114.726 20.46,121 28.801,121 h 72.398 c 8.341,0 13.753,-6.304 9.583,-14.267 z m -4.703,8.367 c -1.001,1.653 -3.487,1.9 -4.88,1.9 H 28.801 c -1.396,0 -3.888,-0.246 -4.885,-1.894 -0.856,-1.416 -0.54,-3.841 0.846,-6.486 L 51,59.761 V 42 H 46.477 C 44.56,42 43,40.44 43,38.523 V 34.475 C 43,32.56 44.56,31 46.477,31 H 83.524 C 85.44,31 87,32.56 87,34.476 v 4.048 C 87,40.44 85.44,42 83.523,42 H 79 v 17.793 l 26.274,48.865 c 1.353,2.583 1.667,5.017 0.805,6.442 z"
         id="path2"
         inkscape:connector-curvature="0"
         style="display:inline;fill:#5252ff;fill-opacity:1" /><path
         sodipodi:nodetypes="cccccssccc"
         d="m 76.240068,63.293763 c -8.048763,0.01686 -8.047052,2.492273 -16.746052,2.034273 -3.958,-0.208 -2.975406,-1.272382 -6.277406,-2.355386 L 28.305,110.477 c -0.575,1.1 -0.784,1.916 -0.845,2.389 0.291,0.069 0.736,0.135 1.341,0.135 h 72.398 c 0.612,0 1.06,-0.068 1.348,-0.139 -0.051,-0.459 -0.24,-1.249 -0.779,-2.278 z"
         id="path4"
         inkscape:connector-curvature="0"
         style="display:inline;fill:#0000ff;fill-opacity:1" /><circle
         cx="71.536385"
         cy="16.915253"
         r="4.6669998"
         id="circle10"
         style="display:inline;fill:#0000ff;fill-opacity:1" /><circle
         cx="58.129612"
         cy="10.790627"
         r="4"
         id="circle12"
         style="display:inline;fill:#0000ff;fill-opacity:1" /><polyline
         transform="matrix(0.11505534,0,0,0.09956537,36.081181,64.481027)"
         style="fill:none;stroke:#b6ff55;stroke-width:17;stroke-linecap:round;stroke-linejoin:round;stroke-miterlimit:10;stroke-opacity:1"
         rx="100"
         id="svg_1"
         stroke-miterlimit="10"
         points="29.5,277.5539855957031 101.71400451660156,277.5539855957031 114.16500854492188,240.2010040283203 131.59600830078125,317.39599609375 168.947998046875,200.35899353027344 193.8489990234375,326.1109924316406 234.93701171875,74.60700225830078 279.7590026855469,444.39300537109375 317.1109924316406,190.3990020751953 346.99298095703125,317.39599609375 378.1199951171875,220.27999877929688 399.2859802246094,277.5539855957031 471.5,277.5539855957031 " /></g></g></svg>