<?xml version="1.0" encoding="UTF-8" standalone="no"?>
<svg
   xmlns:dc="http://purl.org/dc/elements/1.1/"
   xmlns:cc="http://creativecommons.org/ns#"
   xmlns:rdf="http://www.w3.org/1999/02/22-rdf-syntax-ns#"
   xmlns:svg="http://www.w3.org/2000/svg"
   xmlns="http://www.w3.org/2000/svg"
   xmlns:sodipodi="http://sodipodi.sourceforge.net/DTD/sodipodi-0.dtd"
   xmlns:inkscape="http://www.inkscape.org/namespaces/inkscape"
   enable-background="new 0 0 128 128"
   height="128px"
   id="Layer_1"
   version="1.1"
   viewBox="0 0 128 128"
   width="128px"
   xml:space="preserve"
   sodipodi:docname="BL-Logo-v3.0.svg"
   inkscape:version="1.0.1 (3bc2e813f5, 2020-09-07)"
   inkscape:export-filename="/Users/applematuer/Documents/Dev/plugin-development/Image-Work/Logo-v2.0/BL-Logo-v2.1.png"
   inkscape:export-xdpi="765.4809"
   inkscape:export-ydpi="765.4809"><metadata
     id="metadata20"><rdf:RDF><cc:Work
         rdf:about=""><dc:format>image/svg+xml</dc:format><dc:type
           rdf:resource="http://purl.org/dc/dcmitype/StillImage" /><dc:title /></cc:Work></rdf:RDF></metadata><defs
     id="defs18" /><sodipodi:namedview
     pagecolor="#ffffff"
     bordercolor="#666666"
     borderopacity="1"
     objecttolerance="10"
     gridtolerance="10"
     guidetolerance="10"
     inkscape:pageopacity="0"
     inkscape:pageshadow="2"
     inkscape:window-width="1440"
     inkscape:window-height="849"
     id="namedview16"
     showgrid="false"
     inkscape:zoom="4"
     inkscape:cx="71.430151"
     inkscape:cy="54.269721"
     inkscape:window-x="0"
     inkscape:window-y="25"
     inkscape:window-maximized="1"
     inkscape:current-layer="layer4"
     inkscape:document-rotation="0"
     showguides="true"
     inkscape:guide-bbox="true" /><g
     inkscape:groupmode="layer"
     id="layer7"
     inkscape:label="Background-Big"
     style="display:none"
     sodipodi:insensitive="true"><rect
       style="fill:#000000;fill-opacity:1;stroke:#000000;stroke-width:5.7;stroke-linecap:round;stroke-linejoin:round;stroke-miterlimit:4;stroke-dasharray:none;stroke-dashoffset:0;stroke-opacity:1;paint-order:normal"
       id="rect941"
       width="6861.1416"
       height="4474.1528"
       x="-3351.0479"
       y="-2131.8069" /></g><g
     inkscape:groupmode="layer"
     id="layer4"
     inkscape:label="Background"
     style="display:none"><rect
       style="opacity:1;fill:#000000;fill-opacity:1;stroke:#b6ff55;stroke-width:0;stroke-linecap:butt;stroke-linejoin:miter;stroke-miterlimit:4;stroke-dasharray:none;stroke-opacity:0.0152285;paint-order:markers fill stroke"
       id="rect4656"
       width="128.431"
       height="128.42123"
       x="-0.10423345"
       y="0.27631336"
       inkscape:export-filename="/home/niko/Documents/Dev/plugs-dev/bluelab/Design/Icon/ico/icon_48x48.png"
       inkscape:export-xdpi="35.881912"
       inkscape:export-ydpi="35.881912" /></g><g
     inkscape:groupmode="layer"
     id="layer3"
     inkscape:label="Bottle"
     style="display:inline"
     sodipodi:insensitive="true"><g
       id="g4609"
       transform="matrix(0.20228319,0,0,0.20228319,11.46966,38.320744)"><title
         id="title4606">background</title><rect
         style="fill:none"
         id="canvas_background"
         height="402"
         width="582"
         y="-1"
         x="-1" /></g><path
       id="path2"
       style="display:inline;fill:#5252ff;fill-opacity:1"
       d="m 44.757812,27 c -4.128999,0 -7.476562,3.347564 -7.476562,7.476562 v 4.046876 C 37.28125,42.652437 40.628813,46 44.757812,46 H 45.28125 V 58.736328 L 19.5,106.76367 C 15.33,114.72667 18.741031,121 27.082031,121 h 36.773438 0.08398 36.773441 c 8.341,0 11.75203,-6.27333 7.58203,-14.23633 L 82.513672,58.736328 V 46 h 0.523437 c 4.129,0 7.476563,-3.347563 7.476563,-7.476562 V 34.476562 C 90.513672,30.347564 87.166108,27 83.037109,27 h -19.097656 -0.08398 z m 0,4 h 19.097657 0.08398 19.097656 c 1.916999,0 3.476563,1.559609 3.476563,3.474609 v 4.048829 c 0,1.917 -1.559563,3.476562 -3.476563,3.476562 h -4.523437 v 17.761719 l 26.238282,48.857421 c 1.386,2.645 1.70171,5.07033 0.84571,6.48633 -0.997,1.648 -3.48877,1.89453 -4.88477,1.89453 H 63.939453 63.855469 27.082031 c -1.396,0 -3.887765,-0.24653 -4.884765,-1.89453 -0.856,-1.416 -0.540297,-3.84133 0.845703,-6.48633 L 49.28125,59.761719 V 42 h -4.523438 c -1.917,0 -3.476562,-1.559562 -3.476562,-3.476562 V 34.474609 C 41.28125,32.559609 42.840813,31 44.757812,31 Z" /></g><g
     inkscape:groupmode="layer"
     id="layer8"
     inkscape:label="Bubbles"
     style="display:inline"
     sodipodi:insensitive="true"><g
       id="g948"><circle
         cx="69.818085"
         cy="16.915253"
         r="4.6669998"
         id="circle10"
         style="display:inline;fill:#5252ff;fill-opacity:1" /><circle
         cx="56.411312"
         cy="10.790627"
         r="4"
         id="circle12"
         style="display:inline;fill:#5252ff;fill-opacity:1" /></g></g><g
     inkscape:groupmode="layer"
     id="layer2"
     inkscape:label="Fluid"
     style="display:inline"
     sodipodi:insensitive="true"><path
       style="fill:#5252ff;fill-opacity:1;stroke:#5252ff;stroke-width:5.31615;stroke-linecap:butt;stroke-linejoin:round;stroke-miterlimit:4;stroke-dasharray:none;stroke-opacity:1"
       d="m 54.122375,63.988049 19.854478,0.0569 24.748767,46.284711 H 29.069298 Z"
       id="path934"
       sodipodi:nodetypes="cccc" /></g><g
     inkscape:groupmode="layer"
     id="layer1"
     inkscape:label="Waveform"
     style="display:inline"
     sodipodi:insensitive="true"><polyline
       transform="matrix(0.11505534,0,0,0.09956537,35.076097,64.481027)"
       style="display:inline;mix-blend-mode:normal;fill:none;stroke:#b6ff55;stroke-width:23.4419;stroke-linecap:round;stroke-linejoin:round;stroke-miterlimit:10;stroke-dasharray:none;stroke-opacity:1;paint-order:normal"
       rx="100"
       id="svg_1"
       stroke-miterlimit="10"
       points="29.5,277.5539855957031 101.71400451660156,277.5539855957031 114.16500854492188,240.2010040283203 131.59600830078125,317.39599609375 168.947998046875,200.35899353027344 193.8489990234375,326.1109924316406 234.93701171875,74.60700225830078 279.7590026855469,444.39300537109375 317.1109924316406,190.3990020751953 346.99298095703125,317.39599609375 378.1199951171875,220.27999877929688 399.2859802246094,277.5539855957031 471.5,277.5539855957031 " /></g></svg>
